<?xml version="1.0" standalone="no"?>
<!DOCTYPE svg PUBLIC "-//W3C//DTD SVG 20010904//EN"
 "http://www.w3.org/TR/2001/REC-SVG-20010904/DTD/svg10.dtd">
<svg version="1.0" xmlns="http://www.w3.org/2000/svg"
 width="640.000000pt" height="640.000000pt" viewBox="0 0 640.000000 640.000000"
 preserveAspectRatio="xMidYMid meet">
<metadata>
Created by potrace 1.14, written by Peter Selinger 2001-2017
</metadata>
<g transform="translate(0.000000,640.000000) scale(0.100000,-0.100000)"
fill="#000000" stroke="none">
<path d="M4355 5190 c10 -11 24 -20 32 -20 7 0 13 -4 13 -10 0 -5 7 -10 17
-10 9 0 -1 12 -25 30 -48 35 -63 39 -37 10z"/>
<path d="M4605 5200 c-3 -5 -2 -10 4 -10 5 0 13 5 16 10 3 6 2 10 -4 10 -5 0
-13 -4 -16 -10z"/>
<path d="M4513 5157 c-35 -5 -63 -13 -63 -16 0 -4 13 -22 28 -40 36 -44 69
-38 100 17 19 35 20 55 3 51 -3 -1 -34 -6 -68 -12z"/>
<path d="M4147 5082 c-18 -14 -34 -27 -36 -29 -5 -3 26 -33 36 -33 5 0 26 17
47 39 l38 38 -27 5 c-19 4 -36 -2 -58 -20z m28 -2 c3 -5 1 -10 -4 -10 -6 0
-11 5 -11 10 0 6 2 10 4 10 3 0 8 -4 11 -10z"/>
<path d="M4292 5059 c-40 -26 -42 -49 -4 -49 20 0 30 7 40 27 17 37 3 46 -36
22z m18 -19 c0 -5 -4 -10 -10 -10 -5 0 -10 5 -10 10 0 6 5 10 10 10 6 0 10 -4
10 -10z"/>
<path d="M4064 5017 c-24 -25 -38 -57 -25 -57 5 0 16 -3 25 -6 12 -4 16 0 16
16 0 12 4 18 10 15 6 -4 18 -1 26 6 13 10 12 14 -5 30 -24 23 -21 23 -47 -4z"/>
<path d="M4480 5001 c0 -9 41 -23 48 -16 2 2 1 8 -3 14 -8 13 -45 15 -45 2z"/>
<path d="M4160 4952 c0 -11 41 -45 47 -39 7 8 -21 47 -34 47 -7 0 -13 -3 -13
-8z"/>
<path d="M4020 4941 c0 -6 -8 -9 -18 -8 -17 1 -80 -40 -81 -53 -1 -3 3 -11 8
-18 6 -10 14 -9 39 5 18 10 32 22 32 26 0 4 12 19 26 32 21 19 23 25 10 25 -9
0 -16 -4 -16 -9z"/>
<path d="M4307 4920 c-11 -11 -14 -20 -8 -24 5 -4 15 3 21 15 15 27 10 31 -13
9z"/>
<path d="M4046 4881 c-8 -12 6 -42 29 -61 12 -10 19 -10 27 -2 9 9 8 12 -5 12
-11 0 -24 13 -31 31 -8 19 -16 27 -20 20z"/>
<path d="M4095 4869 c-7 -10 10 -28 28 -29 12 0 8 17 -7 29 -11 9 -16 9 -21 0z"/>
<path d="M3838 4827 c-38 -32 -64 -52 -145 -110 -74 -53 -82 -63 -60 -70 6 -2
0 -2 -15 0 -21 3 -28 0 -28 -11 0 -10 -9 -16 -21 -16 -15 0 -19 -4 -15 -16 5
-12 2 -15 -12 -12 -15 4 -19 0 -19 -22 l0 -28 39 24 c24 16 38 20 38 12 0 -7
15 -23 33 -34 44 -29 111 -22 143 15 33 37 30 65 -11 98 -33 26 -49 73 -25 73
6 0 10 -5 10 -11 0 -6 7 -3 16 5 19 20 24 20 50 2 11 -8 36 -14 55 -13 l34 2
-4 50 c-1 28 -7 52 -12 53 -5 2 -9 10 -9 18 0 19 -10 17 -42 -9z m17 -37 c-3
-5 -10 -10 -16 -10 -5 0 -9 5 -9 10 0 6 7 10 16 10 8 0 12 -4 9 -10z m-127
-121 c17 -26 10 -34 -17 -19 -13 7 -21 7 -21 1 0 -6 -7 -8 -15 -4 -17 6 -15
28 3 28 5 0 14 3 18 8 12 11 18 9 32 -14z"/>
<path d="M3906 4843 c-11 -11 -6 -23 9 -23 8 0 15 4 15 9 0 13 -16 22 -24 14z"/>
<path d="M4202 4838 c-14 -14 -16 -38 -4 -38 9 0 52 38 52 45 0 10 -37 4 -48
-7z"/>
<path d="M3979 4822 c-1 -4 -1 -11 0 -16 1 -5 -5 -6 -13 -3 -9 4 -13 0 -11
-11 2 -9 4 -29 4 -43 1 -38 21 -56 69 -64 39 -6 43 -5 40 11 -2 11 -11 18 -21
18 -20 -2 -22 7 -6 23 16 16 2 33 -27 33 -15 0 -24 6 -24 15 0 8 5 15 10 15 6
0 10 4 10 9 0 11 -30 23 -31 13z"/>
<path d="M3860 4634 c0 -19 4 -25 15 -20 20 7 20 -22 -1 -45 -21 -23 -2 -33
22 -11 10 10 22 18 26 18 11 -1 48 33 48 44 0 5 -7 10 -15 10 -9 0 -12 6 -9
15 5 12 -3 15 -40 15 -43 0 -46 -2 -46 -26z"/>
<path d="M3432 4523 c-8 -8 -11 -20 -9 -28 6 -13 -26 -29 -51 -25 -18 2 -43
-20 -36 -31 9 -14 22 -10 28 9 3 9 4 -2 2 -25 -4 -47 -4 -48 25 -33 12 7 19
21 19 40 0 19 7 33 19 40 12 6 17 17 14 29 -4 16 -1 19 16 14 25 -7 28 3 4 16
-13 6 -22 4 -31 -6z"/>
<path d="M3564 4499 c-3 -6 0 -15 7 -20 7 -4 10 -11 6 -15 -3 -4 -13 -1 -21 5
-12 10 -21 8 -45 -10 -30 -22 -40 -39 -23 -39 4 0 14 6 21 13 10 10 12 8 9 -8
-4 -24 50 -85 60 -68 4 6 18 13 32 14 27 4 40 43 21 62 -6 6 -11 19 -11 29 0
10 -4 18 -10 18 -5 0 -10 7 -10 15 0 17 -26 20 -36 4z"/>
<path d="M3706 4465 c-3 -9 -4 -21 0 -26 3 -5 7 -19 9 -30 7 -35 14 -35 46 -1
16 18 34 32 40 32 14 0 11 30 -3 30 -7 1 -29 3 -49 6 -28 4 -38 1 -43 -11z"/>
<path d="M3245 4408 c-11 -7 -26 -18 -33 -25 -7 -7 -17 -13 -21 -13 -7 0 -51
-31 -96 -68 -5 -4 -18 -11 -27 -15 -10 -3 -18 -16 -18 -27 0 -11 -4 -20 -10
-20 -5 0 -10 -11 -10 -25 0 -14 -4 -25 -10 -25 -16 0 -11 -30 6 -37 8 -3 20
-1 27 6 18 18 29 13 22 -10 -6 -19 -5 -20 14 -9 12 6 19 15 16 21 -4 5 -3 9 2
9 4 0 16 7 26 14 18 14 17 16 -4 58 -24 48 -24 51 9 54 12 2 35 9 50 17 94 49
122 77 52 52 -22 -8 -40 -10 -40 -5 0 12 37 22 81 22 35 -1 57 17 42 32 -10
10 -57 6 -78 -6z m-165 -197 c0 -6 -4 -13 -10 -16 -5 -3 -10 1 -10 9 0 9 5 16
10 16 6 0 10 -4 10 -9z"/>
<path d="M3419 4342 c-14 -9 -24 -23 -22 -29 3 -8 -4 -13 -16 -13 -11 0 -23
-5 -26 -11 -5 -7 11 -9 45 -8 48 2 78 18 52 27 -18 6 -15 22 4 22 9 0 14 5 12
12 -7 19 -21 19 -49 0z"/>
<path d="M3265 4301 c-62 -22 -84 -34 -89 -47 -7 -19 8 -18 54 6 22 11 43 20
47 19 21 -3 33 2 33 16 0 16 -12 18 -45 6z"/>
<path d="M3533 4283 c-7 -2 -13 -13 -13 -24 0 -10 -4 -19 -10 -19 -5 0 -10 -9
-10 -20 0 -25 7 -25 50 2 32 21 33 23 13 26 -13 2 -23 10 -23 17 0 9 6 12 15
9 8 -4 15 -1 15 5 0 11 -16 13 -37 4z"/>
<path d="M3382 4229 c-51 -10 -64 -17 -56 -30 4 -7 10 -7 18 0 6 5 31 11 55
13 25 2 46 9 49 16 4 13 -4 14 -66 1z"/>
<path d="M3223 4208 c-13 -6 -23 -17 -23 -25 0 -7 -7 -13 -15 -13 -8 0 -15 -7
-15 -15 0 -7 -7 -18 -16 -23 -9 -5 -14 -14 -10 -20 10 -17 53 6 60 33 3 12 17
30 31 39 42 27 32 45 -12 24z"/>
<path d="M3353 4184 c-9 -4 -9 -11 -1 -30 11 -24 38 -34 38 -14 0 6 -5 10 -11
10 -5 0 -7 5 -4 10 3 6 19 10 36 10 16 0 29 5 29 10 0 10 -65 13 -87 4z"/>
<path d="M4352 4169 c-7 -12 -15 -19 -18 -16 -3 2 -43 -4 -90 -13 -113 -23
-154 -60 -100 -89 29 -16 49 -6 41 19 -6 20 8 25 97 36 57 7 57 6 63 -22 11
-49 14 -54 30 -54 8 0 15 6 16 13 4 56 4 124 1 135 -6 19 -26 14 -40 -9z"/>
<path d="M3253 4130 c-29 -36 -30 -55 -4 -40 35 18 41 8 17 -25 -14 -19 -15
-19 -35 -1 -19 18 -21 18 -27 1 -5 -11 -1 -21 9 -27 25 -14 20 -35 -9 -41 -21
-4 -28 1 -42 29 -16 35 -32 45 -32 19 0 -7 7 -18 17 -23 10 -6 14 -16 10 -26
-10 -26 -21 -19 -39 25 -15 36 -20 40 -33 29 -19 -16 -19 -30 -1 -30 18 0 32
-18 40 -53 4 -19 3 -26 -4 -22 -5 3 -10 17 -10 31 0 40 -18 27 -26 -18 -7 -42
-8 -42 -13 -13 -4 17 -13 31 -23 33 -14 3 -17 -4 -15 -32 2 -20 10 -43 19 -52
15 -15 19 -14 49 7 19 13 36 28 38 32 5 12 41 -24 41 -41 0 -9 -9 -25 -19 -36
-18 -19 -25 -55 -22 -113 1 -14 7 -22 19 -21 9 0 25 -3 35 -7 13 -6 17 -2 18
16 1 21 2 20 9 -6 20 -77 2 -153 -34 -147 -11 2 -23 -2 -27 -10 -13 -20 -11
-31 6 -24 11 4 15 -2 15 -20 0 -15 -5 -24 -12 -22 -17 3 -78 -34 -72 -43 2 -5
11 -6 19 -2 9 3 15 -1 16 -8 1 -8 4 -3 8 10 11 42 32 38 30 -6 -1 -21 1 -47 5
-58 7 -19 7 -19 -7 -2 -12 15 -19 16 -41 6 -14 -7 -26 -18 -26 -25 0 -7 -5
-14 -11 -16 -6 -2 1 -10 15 -18 24 -12 30 -11 64 8 l38 21 28 -29 c15 -17 31
-30 35 -30 3 0 15 -17 26 -37 10 -21 30 -47 42 -58 22 -19 23 -28 24 -140 1
-68 -3 -132 -10 -148 -13 -33 -14 -96 -3 -115 15 -23 70 -2 107 40 37 44 180
308 228 421 38 92 53 114 81 121 12 3 40 13 62 23 21 9 46 18 54 18 8 1 49 12
90 25 71 24 87 25 295 24 233 -1 407 -18 539 -54 61 -16 73 -17 85 -5 12 12
12 18 -4 42 -24 38 -49 58 -118 94 -161 83 -413 150 -765 204 -101 16 -275 17
-355 3 -11 -2 -24 8 -35 26 -21 37 -55 70 -98 97 -19 11 -31 26 -28 33 4 10
-2 12 -20 9 -15 -3 -38 3 -58 15 -25 15 -123 42 -155 42 -12 0 0 32 14 37 29
11 63 46 63 64 0 10 -9 21 -20 24 -11 3 -20 15 -20 26 0 26 -11 23 -37 -11z
m-53 -380 c0 -5 -4 -10 -9 -10 -6 0 -13 5 -16 10 -3 6 1 10 9 10 9 0 16 -4 16
-10z m1215 -160 c11 -18 -26 -23 -43 -6 -15 15 -14 16 10 16 15 0 30 -5 33
-10z"/>
<path d="M2955 4101 c-25 -29 -27 -109 -2 -123 15 -7 23 -5 38 11 10 11 19 23
19 26 0 3 10 19 22 36 l23 30 -25 19 c-32 25 -52 25 -75 1z m32 -17 c-3 -3
-12 -4 -19 -1 -8 3 -5 6 6 6 11 1 17 -2 13 -5z m-30 -36 c-3 -8 -6 -5 -6 6 -1
11 2 17 5 13 3 -3 4 -12 1 -19z m33 -4 c0 -8 -4 -12 -10 -9 -5 3 -10 10 -10
16 0 5 5 9 10 9 6 0 10 -7 10 -16z m-10 -44 c0 -5 -4 -10 -10 -10 -5 0 -10 5
-10 10 0 6 5 10 10 10 6 0 10 -4 10 -10z"/>
<path d="M2838 4025 c-38 -32 -38 -32 -18 -50 23 -21 39 -13 20 10 -11 14 -10
17 8 22 12 3 22 10 22 15 0 5 5 6 10 3 12 -7 13 5 2 21 -5 8 -19 1 -44 -21z"/>
<path d="M3590 4005 c0 -11 7 -15 23 -13 12 2 22 8 22 13 0 6 -10 11 -22 13
-16 2 -23 -2 -23 -13z"/>
<path d="M2860 4000 c-13 -8 -12 -10 3 -10 9 0 17 5 17 10 0 12 -1 12 -20 0z"/>
<path d="M3345 4000 c-6 -10 -5 -11 14 -14 5 0 13 -4 17 -8 12 -12 34 -9 49 6
12 12 12 15 -1 20 -25 9 -72 7 -79 -4z m62 -6 c-3 -3 -12 -4 -19 -1 -8 3 -5 6
6 6 11 1 17 -2 13 -5z"/>
<path d="M2670 3988 c-19 -6 -29 -13 -22 -15 20 -8 14 -25 -7 -18 -26 8 -36
-11 -13 -24 16 -8 27 -5 55 17 62 47 57 61 -13 40z"/>
<path d="M2732 3933 c-13 -14 -21 -32 -18 -39 8 -20 43 -17 65 5 19 19 19 20
-2 40 l-22 20 -23 -26z"/>
<path d="M2883 3943 c-7 -2 -13 -19 -13 -36 0 -24 3 -28 10 -17 9 14 15 7 11
-14 -2 -12 49 -86 60 -86 18 0 59 49 59 70 0 22 -1 22 -19 6 -14 -13 -24 -14
-43 -7 -26 10 -42 36 -32 52 3 5 -2 9 -10 9 -9 0 -16 5 -16 10 0 13 6 13 31 0
10 -6 19 -17 19 -24 0 -12 20 -26 36 -26 10 0 3 38 -8 48 -16 12 -69 22 -85
15z"/>
<path d="M3590 3910 c-12 -8 -11 -10 8 -10 12 0 22 5 22 10 0 13 -11 13 -30 0z"/>
<path d="M2560 3889 c0 -7 -12 -22 -26 -35 -14 -13 -22 -29 -18 -35 4 -8 9 -8
17 0 6 6 21 11 33 11 37 0 54 11 54 35 0 15 -8 25 -22 29 -32 8 -38 7 -38 -5z"/>
<path d="M2830 3830 c0 -32 43 -90 67 -90 21 0 15 17 -14 40 -19 15 -24 23
-15 29 9 5 5 14 -13 29 l-25 22 0 -30z"/>
<path d="M2470 3829 c0 -5 5 -7 10 -4 6 3 10 8 10 11 0 2 -4 4 -10 4 -5 0 -10
-5 -10 -11z"/>
<path d="M2648 3803 c-4 -49 22 -79 52 -61 22 14 26 38 9 55 -8 8 -8 13 0 17
22 14 10 26 -23 26 -33 0 -35 -2 -38 -37z"/>
<path d="M2723 3815 c-3 -9 -3 -19 1 -22 8 -9 37 18 30 28 -8 14 -24 11 -31
-6z"/>
<path d="M2428 3808 c-32 -11 -39 -39 -8 -31 19 5 46 30 39 37 -2 2 -16 -1
-31 -6z"/>
<path d="M3042 3788 c-18 -13 -35 -33 -38 -45 -5 -18 -11 -22 -30 -17 -28 7
-31 -7 -6 -28 22 -19 55 -32 46 -17 -4 6 2 9 14 7 11 -2 29 6 41 16 22 20 28
46 11 46 -7 0 -7 6 0 19 23 45 10 51 -38 19z m18 -52 c0 -8 -4 -18 -10 -21 -5
-3 -10 3 -10 14 0 12 5 21 10 21 6 0 10 -6 10 -14z"/>
<path d="M2571 3777 c-6 -8 -7 -18 -3 -22 4 -5 1 -5 -6 -1 -7 4 -9 12 -6 18 4
6 -1 8 -11 6 -10 -1 -20 -9 -23 -17 -3 -9 0 -11 8 -6 10 6 12 1 7 -22 -5 -26
-3 -30 11 -26 16 4 62 61 62 76 0 12 -27 8 -39 -6z"/>
<path d="M2471 3763 c-1 -7 -6 -13 -12 -13 -6 0 -24 -13 -40 -30 -33 -33 -36
-72 -6 -78 21 -4 22 11 1 32 -8 9 -11 16 -5 16 5 0 17 -7 26 -16 17 -18 42
-13 51 11 3 8 2 32 -4 52 -5 21 -10 32 -11 26z"/>
<path d="M2772 3743 c2 -10 13 -23 26 -29 12 -6 34 -24 48 -40 26 -29 26 -29
19 -4 -7 27 -67 90 -86 90 -6 0 -9 -8 -7 -17z"/>
<path d="M2330 3711 c-17 -33 -11 -45 10 -18 22 28 25 37 10 37 -5 0 -14 -9
-20 -19z"/>
<path d="M2743 3713 c-4 -10 -11 -21 -17 -25 -7 -5 -7 -8 -1 -8 6 0 10 -14 11
-31 1 -38 11 -47 54 -54 29 -4 31 -3 10 4 -14 5 -18 9 -10 10 10 1 8 5 -7 16
-20 14 -22 55 -3 55 5 0 3 11 -3 25 -14 29 -25 32 -34 8z"/>
<path d="M2597 3699 c-17 -19 -17 -20 18 -17 38 2 42 7 23 26 -15 15 -19 14
-41 -9z"/>
<path d="M3110 3675 c0 -8 -7 -15 -15 -15 -31 0 -13 -18 31 -30 39 -11 47 -11
60 2 14 14 12 18 -19 37 -41 25 -57 27 -57 6z"/>
<path d="M2284 3655 c-10 -8 -14 -15 -8 -15 6 0 17 7 24 15 16 19 9 19 -16 0z"/>
<path d="M2583 3658 c2 -7 10 -13 17 -13 7 0 15 6 18 13 2 7 -5 12 -18 12 -13
0 -20 -5 -17 -12z"/>
<path d="M2486 3631 c-13 -15 -14 -20 -4 -24 8 -4 7 -6 -4 -6 -10 -1 -18 -5
-18 -11 0 -5 8 -10 18 -11 10 0 12 -3 5 -6 -13 -5 -18 -33 -7 -33 14 0 50 47
51 67 3 33 -21 47 -41 24z"/>
<path d="M2667 3637 c-2 -7 -17 -19 -33 -27 -42 -22 -88 -70 -78 -80 14 -13
58 -21 69 -13 6 5 21 21 35 36 21 24 22 30 10 37 -13 8 -12 10 3 10 10 0 17 8
17 19 0 24 -16 36 -23 18z m-37 -88 c0 -5 -4 -9 -10 -9 -5 0 -10 7 -10 16 0 8
5 12 10 9 6 -3 10 -10 10 -16z"/>
<path d="M2907 3643 c-13 -12 -7 -40 14 -67 27 -34 32 -33 47 7 15 41 15 57 2
57 -5 0 -10 -6 -10 -14 0 -8 -7 -16 -15 -20 -17 -6 -21 9 -5 19 6 3 10 10 10
16 0 10 -33 12 -43 2z"/>
<path d="M2330 3610 c-7 -13 -6 -20 3 -23 9 -3 9 -8 -2 -21 -21 -25 18 -64 59
-58 17 2 30 9 29 16 -1 17 -17 53 -18 39 -1 -13 -38 -6 -47 9 -4 6 1 8 14 4
32 -11 33 18 1 36 -27 16 -29 16 -39 -2z"/>
<path d="M2000 3610 c0 -5 5 -10 11 -10 5 0 7 5 4 10 -3 6 -8 10 -11 10 -2 0
-4 -4 -4 -10z"/>
<path d="M2160 3600 c0 -5 9 -10 20 -10 11 0 20 5 20 10 0 6 -9 10 -20 10 -11
0 -20 -4 -20 -10z"/>
<path d="M3024 3560 c-4 -22 -11 -40 -17 -40 -5 0 -5 -6 2 -14 16 -19 64 -18
57 1 -4 9 -1 13 6 11 14 -5 41 39 32 53 -3 5 -14 9 -24 9 -10 0 -22 5 -25 10
-13 21 -25 9 -31 -30z"/>
<path d="M2070 3570 c0 -5 9 -10 20 -10 11 0 20 5 20 10 0 6 -9 10 -20 10 -11
0 -20 -4 -20 -10z"/>
<path d="M2240 3571 c0 -5 -3 -16 -6 -25 -4 -11 -1 -16 11 -16 9 0 14 -4 10
-10 -3 -5 -12 -7 -20 -3 -9 3 -15 -1 -15 -11 0 -9 8 -16 19 -16 24 0 27 5 36
53 7 33 5 37 -14 37 -11 0 -21 -4 -21 -9z"/>
<path d="M2720 3535 c0 -8 -6 -15 -12 -15 -8 0 -6 -5 4 -11 12 -7 23 -6 38 3
28 18 25 38 -5 38 -16 0 -25 -6 -25 -15z"/>
<path d="M2804 3503 c-21 -21 -17 -32 14 -44 l27 -11 -25 -13 c-33 -19 -60
-19 -74 0 -14 20 -67 24 -74 6 -3 -9 1 -11 17 -6 15 5 21 2 21 -9 0 -10 9 -16
21 -16 20 0 20 -2 7 -22 -8 -13 -18 -36 -22 -51 -4 -17 -12 -27 -19 -24 -7 3
-24 -4 -37 -15 -29 -23 -20 -46 24 -61 21 -7 32 -5 46 8 10 9 24 14 29 10 17
-10 13 -55 -4 -55 -8 0 -15 -9 -15 -21 0 -11 -4 -18 -9 -14 -11 6 -26 -33 -17
-43 3 -3 13 3 21 14 12 16 14 17 15 3 0 -9 -7 -19 -15 -23 -8 -3 -15 -12 -15
-19 0 -8 -29 -29 -64 -47 -36 -18 -74 -41 -85 -52 -12 -10 -21 -16 -21 -13 0
6 -90 -66 -128 -103 -8 -7 -18 -10 -23 -7 -14 9 -11 -37 5 -67 8 -16 11 -28 5
-28 -5 0 -9 -4 -9 -10 0 -6 9 -6 23 -1 16 6 31 4 53 -10 l31 -18 134 87 c186
122 306 192 464 268 121 60 153 84 109 84 -8 0 -14 4 -14 10 0 5 -13 16 -29
24 -15 8 -34 29 -41 46 -11 25 -18 31 -37 27 -13 -2 -23 1 -23 7 0 8 -13 10
-35 8 -26 -3 -36 0 -41 13 -5 11 -1 21 9 27 10 5 17 16 17 23 0 8 6 15 14 15
14 0 31 44 22 58 -2 4 -23 7 -46 5 -35 -2 -43 1 -47 18 -5 17 -11 19 -32 14
-60 -15 -94 -18 -87 -6 4 6 18 8 32 5 17 -4 24 -2 24 8 0 8 -18 19 -41 25 -32
8 -43 8 -55 -4z m165 -136 c8 -10 7 -14 -4 -14 -8 0 -15 6 -15 14 0 7 2 13 4
13 2 0 9 -6 15 -13z m146 -97 c3 -6 -1 -7 -9 -4 -18 7 -21 14 -7 14 6 0 13 -4
16 -10z"/>
<path d="M2462 3488 c-20 -20 -14 -25 39 -27 28 -1 59 -6 69 -11 23 -12 30
-13 30 -2 0 10 -90 52 -111 52 -8 0 -20 -5 -27 -12z"/>
<path d="M2283 3444 c-3 -9 0 -20 8 -25 20 -13 29 -11 29 6 0 8 5 15 10 15 23
0 8 -30 -17 -36 -39 -8 -71 -25 -77 -40 -4 -10 3 -9 29 2 19 8 44 14 55 14 20
0 60 32 60 48 0 8 -58 32 -79 32 -6 0 -14 -7 -18 -16z"/>
<path d="M2484 3405 c22 -16 56 -20 56 -6 0 9 -34 21 -60 21 -11 -1 -10 -4 4
-15z"/>
<path d="M2181 3335 c-1 -57 0 -59 15 -37 11 16 13 27 6 35 -6 7 -12 23 -15
37 -2 14 -5 -2 -6 -35z"/>
<path d="M2392 3370 c-17 -28 -16 -35 16 -70 24 -25 33 -29 59 -24 22 4 32 13
36 30 5 27 -6 43 -45 67 -36 22 -50 21 -66 -3z m58 -60 c0 -5 -4 -10 -10 -10
-5 0 -10 5 -10 10 0 6 5 10 10 10 6 0 10 -4 10 -10z"/>
<path d="M2571 3371 c-24 -18 -24 -20 -8 -45 15 -22 15 -26 2 -26 -9 0 -15 -9
-15 -21 0 -33 32 -19 55 24 11 20 26 37 33 37 6 0 12 7 12 15 0 8 -9 15 -20
15 -11 0 -20 5 -20 10 0 15 -12 12 -39 -9z"/>
<path d="M3196 3323 c-11 -11 -6 -23 9 -23 8 0 15 4 15 9 0 13 -16 22 -24 14z"/>
<path d="M2246 3276 c-32 -26 -37 -35 -25 -42 8 -5 19 -18 25 -29 11 -20 64
-34 64 -17 0 5 14 26 30 47 29 36 29 39 14 57 -25 27 -64 22 -108 -16z"/>
<path d="M3170 3251 c0 -5 5 -13 10 -16 6 -3 10 -2 10 4 0 5 -4 13 -10 16 -5
3 -10 2 -10 -4z"/>
<path d="M3230 3240 c0 -11 5 -20 10 -20 6 0 10 9 10 20 0 11 -4 20 -10 20 -5
0 -10 -9 -10 -20z"/>
<path d="M2419 3231 c-47 -22 -44 -44 9 -55 38 -8 45 -6 67 14 14 13 24 28 22
34 -7 20 -63 23 -98 7z"/>
<path d="M2576 3205 c-11 -8 -16 -15 -11 -15 5 0 1 -6 -9 -13 -13 -10 -16 -20
-12 -35 10 -30 43 -47 62 -31 10 8 14 8 14 0 0 -23 16 -10 32 26 18 39 10 73
-17 73 -7 0 -19 2 -27 5 -7 2 -22 -2 -32 -10z"/>
<path d="M2200 3156 c0 -9 5 -16 10 -16 6 0 10 4 10 9 0 6 -4 13 -10 16 -5 3
-10 -1 -10 -9z"/>
<path d="M2311 3110 c-31 -30 -42 -70 -18 -70 6 -1 1 -7 -12 -14 -33 -18 -311
-297 -311 -311 0 -7 -11 -33 -25 -59 -14 -26 -25 -52 -25 -57 0 -6 -11 -35
-25 -66 -19 -41 -30 -53 -41 -49 -11 4 -31 -11 -61 -44 -59 -66 -94 -84 -148
-77 -104 15 -133 -32 -57 -90 34 -26 49 -32 70 -26 l26 6 -23 -34 c-12 -19
-41 -71 -63 -116 -35 -69 -48 -84 -82 -101 -25 -12 -53 -18 -72 -15 -31 5 -46
-2 -309 -128 -105 -50 -167 -101 -148 -120 8 -8 24 -6 58 5 66 23 85 34 113
67 13 16 28 29 33 29 14 0 11 -20 -6 -37 -9 -8 -14 -20 -12 -26 8 -24 30 -16
73 27 49 50 67 55 96 29 18 -16 23 -15 98 22 55 27 93 39 127 39 26 1 54 5 61
9 22 14 52 -2 52 -29 0 -28 24 -79 50 -109 22 -24 26 -43 15 -68 -17 -40 48
-97 110 -97 31 0 32 13 3 105 -22 70 -48 117 -103 189 -41 53 -38 98 10 200
20 44 42 85 49 91 6 6 30 34 53 61 108 127 169 182 252 228 69 38 281 191 281
203 0 6 -21 23 -47 38 -67 39 -82 53 -76 76 3 10 0 19 -6 19 -6 0 -11 -7 -11
-15 0 -27 -21 -16 -35 19 -17 41 -14 54 21 81 13 11 36 30 49 43 14 13 25 18
25 12 0 -15 19 -12 36 5 14 13 13 15 -9 15 -18 0 -26 6 -29 25 -3 13 -2 23 1
22 13 -4 77 29 93 48 28 33 22 53 -19 64 -50 14 -46 15 -82 -19z m89 0 c0 -5
-2 -10 -4 -10 -3 0 -8 5 -11 10 -3 6 -1 10 4 10 6 0 11 -4 11 -10z m-566 -756
c-22 -32 -73 -59 -86 -46 -14 14 -3 29 40 52 53 27 66 26 46 -6z"/>
<path d="M2475 3062 c-15 -11 -55 -70 -55 -81 0 -17 20 -23 33 -9 24 26 46 74
39 85 -4 7 -12 9 -17 5z"/>
<path d="M2547 3032 c-21 -23 -21 -32 -2 -32 8 0 15 5 15 10 0 6 6 10 14 10 7
0 19 7 26 15 10 13 9 15 -12 15 -14 0 -32 -8 -41 -18z"/>
<path d="M2300 2920 c0 -5 5 -10 10 -10 6 0 10 5 10 10 0 6 -4 10 -10 10 -5 0
-10 -4 -10 -10z"/>
<path d="M2391 2916 c-8 -10 -9 -16 -1 -21 5 -3 13 1 16 10 9 22 -1 29 -15 11z"/>
<path d="M2317 2854 c-4 -4 -7 -12 -7 -17 0 -6 3 -7 7 -4 3 4 13 1 21 -5 12
-10 14 -9 11 6 -4 21 -21 31 -32 20z"/>
<path d="M2321 2804 c0 -11 3 -14 6 -6 3 7 2 16 -1 19 -3 4 -6 -2 -5 -13z"/>
</g>
</svg>
